<svg width="26" height="30" fill="none" xmlns="http://www.w3.org/2000/svg"><path d="M11.97 28.486h0c.538.402.629.452.774.49h0c.128.032.384.032.511 0h0c.147-.038.237-.087.776-.49H11.97zm0 0c-1.709-1.273-4.476-3.559-6.808-6.51C2.822 19.016 1 15.485 1 11.703 1 8.9 2.236 6.19 4.477 4.171 6.72 2.151 9.786 1 13 1c3.215 0 6.28 1.15 8.523 3.171h0M11.97 28.487L21.523 4.17m0 0C23.764 6.188 25 8.901 25 11.704c0 3.782-1.822 7.312-4.162 10.273m.685-17.806l-.685 17.806m0 0c-2.331 2.95-5.098 5.236-6.807 6.51l6.807-6.51z" stroke="#CCDAF5" stroke-width="2" stroke-linecap="round" stroke-linejoin="round"/><path d="M9 12a4 4 0 108 0 4 4 0 00-8 0z" fill="#CCDAF5"/></svg>