<svg width="32" height="32" fill="none" xmlns="http://www.w3.org/2000/svg"><path d="M17.5 4.333c0 1.841-3.694 3.334-8.25 3.334S1 6.174 1 4.333m16.5 0C17.5 2.493 13.806 1 9.25 1S1 2.492 1 4.333m16.5 0v7.429c-1.832.611-3 1.536-3 2.571M1 4.333v20c0 1.841 3.694 3.334 8.25 3.334 1.994 0 3.824-.286 5.25-.762V14.333m0 0c0 1.841 3.694 3.334 8.25 3.334S31 16.174 31 14.333m-16.5 0c0-1.84 3.694-3.333 8.25-3.333S31 12.492 31 14.333m-16.5 0v13.334c0 1.84 3.694 3.333 8.25 3.333S31 29.508 31 27.667V14.333M1 11c0 1.841 3.694 3.333 8.25 3.333 1.994 0 3.824-.286 5.25-.761M1 17.666C1 19.507 4.694 21 9.25 21c1.994 0 3.824-.286 5.25-.762M31 21c0 1.841-3.694 3.333-8.25 3.333S14.5 22.841 14.5 21" stroke="#fff" stroke-width="2" stroke-linecap="round" stroke-linejoin="round"/></svg>