<svg width="40" height="40" fill="none" xmlns="http://www.w3.org/2000/svg"><g clip-path="url(#clip0_13008_15)"><path d="M28 10c0 4.42-3.58 8-8 8s-8-3.58-8-8 3.58-8 8-8 8 3.58 8 8zM2 33.667c0-.928.449-1.89 1.543-2.899C4.65 29.746 6.28 28.815 8.24 28.03c3.924-1.572 8.672-2.362 11.759-2.362 3.087 0 7.835.79 11.76 2.362 1.96.786 3.59 1.717 4.697 2.74C37.551 31.777 38 32.738 38 33.666V38H2v-4.333z" stroke="#fff" stroke-width="4"/></g><defs><clipPath id="clip0_13008_15"><path fill="#fff" d="M0 0h40v40H0z"/></clipPath></defs></svg>