<svg width="40" height="40" fill="none" xmlns="http://www.w3.org/2000/svg"><path d="M33.192 32c1.792 0 2.797 1.975 1.498 3.21C31.545 38.195 27.462 40 23 40c-8.06 0-14.882-5.886-17.176-14H3a2 2 0 110-4h2.089a22.448 22.448 0 010-4H3a2 2 0 110-4h2.824C8.118 5.886 14.94 0 23 0c4.462 0 8.545 1.804 11.69 4.79C35.989 6.026 34.984 8 33.192 8c-.596 0-1.162-.245-1.608-.64C29.214 5.254 26.234 4 23 4c-5.875 0-10.905 4.136-12.982 10H17a2 2 0 110 4H9.108a18.43 18.43 0 000 4H17a2 2 0 110 4h-6.982C12.094 31.864 17.125 36 23 36c3.235 0 6.213-1.254 8.584-3.36.446-.395 1.012-.64 1.608-.64z" fill="#fff"/></svg>